REM DIRINDEX 1\5,1\2\6,1\2\7,1\3\8,1\3\9,1\4\10,1\4\11,1\4\12
REM DIRNAME cjc026,folder01,folder02,folder03,folder04,folder05,folder06,folder07,folder08,folder09,folder10,folder11
TITLE ""
FILE "EJE_DB3000_5th_4B_30.mp3" MP3
  TRACK 01 AUDIO
    TITLE "0:"
    INDEX 01 00:00:00
  TRACK 02 AUDIO
    TITLE "10:cjc026_09324"
    INDEX 01 00:00:08
  TRACK 03 AUDIO
    TITLE "0:"
    INDEX 01 00:01:16
  TRACK 04 AUDIO
    TITLE "11:cjc026_09325"
    INDEX 01 00:01:54
  TRACK 05 AUDIO
    TITLE "0:"
    INDEX 01 00:03:04
  TRACK 06 AUDIO
    TITLE "12:cjc026_09326"
    INDEX 01 00:03:39
  TRACK 07 AUDIO
    TITLE "0:"
    INDEX 01 00:04:51
  TRACK 08 AUDIO
    TITLE "10:cjc026_09327"
    INDEX 01 00:05:11
  TRACK 09 AUDIO
    TITLE "0:"
    INDEX 01 00:06:52
  TRACK 10 AUDIO
    TITLE "11:cjc026_09328"
    INDEX 01 00:07:12
  TRACK 11 AUDIO
    TITLE "0:"
    INDEX 01 00:08:45
  TRACK 12 AUDIO
    TITLE "12:cjc026_09329"
    INDEX 01 00:09:05
  TRACK 13 AUDIO
    TITLE "0:"
    INDEX 01 00:10:49
  TRACK 14 AUDIO
    TITLE "10:cjc026_09330"
    INDEX 01 00:11:09
  TRACK 15 AUDIO
    TITLE "0:"
    INDEX 01 00:12:50
  TRACK 16 AUDIO
    TITLE "11:cjc026_09331"
    INDEX 01 00:13:10
  TRACK 17 AUDIO
    TITLE "0:"
    INDEX 01 00:14:54
  TRACK 18 AUDIO
    TITLE "12:cjc026_09332"
    INDEX 01 00:15:14
  TRACK 19 AUDIO
    TITLE "0:"
    INDEX 01 00:16:55
  TRACK 20 AUDIO
    TITLE "10:cjc026_09333"
    INDEX 01 00:17:18
  TRACK 21 AUDIO
    TITLE "0:"
    INDEX 01 00:18:48
  TRACK 22 AUDIO
    TITLE "11:cjc026_09334"
    INDEX 01 00:19:11
  TRACK 23 AUDIO
    TITLE "0:"
    INDEX 01 00:20:36
  TRACK 24 AUDIO
    TITLE "12:cjc026_09335"
    INDEX 01 00:20:71
  TRACK 25 AUDIO
    TITLE "0:"
    INDEX 01 00:22:26
  TRACK 26 AUDIO
    TITLE "10:cjc026_09336"
    INDEX 01 00:22:61
  TRACK 27 AUDIO
    TITLE "0:"
    INDEX 01 00:24:09
  TRACK 28 AUDIO
    TITLE "11:cjc026_09337"
    INDEX 01 00:24:44
  TRACK 29 AUDIO
    TITLE "0:"
    INDEX 01 00:25:44
  TRACK 30 AUDIO
    TITLE "12:cjc026_09338"
    INDEX 01 00:26:04
  TRACK 31 AUDIO
    TITLE "0:"
    INDEX 01 00:27:27
  TRACK 32 AUDIO
    TITLE "10:cjc026_09339"
    INDEX 01 00:27:62
  TRACK 33 AUDIO
    TITLE "0:"
    INDEX 01 00:29:03
  TRACK 34 AUDIO
    TITLE "11:cjc026_09340"
    INDEX 01 00:29:39
  TRACK 35 AUDIO
    TITLE "0:"
    INDEX 01 00:30:47
  TRACK 36 AUDIO
    TITLE "12:cjc026_09341"
    INDEX 01 00:31:10
  TRACK 37 AUDIO
    TITLE "0:"
    INDEX 01 00:32:24
  TRACK 38 AUDIO
    TITLE "10:cjc026_09342"
    INDEX 01 00:32:59
  TRACK 39 AUDIO
    TITLE "0:"
    INDEX 01 00:34:09
  TRACK 40 AUDIO
    TITLE "11:cjc026_09343"
    INDEX 01 00:34:50
  TRACK 41 AUDIO
    TITLE "0:"
    INDEX 01 00:35:64
  TRACK 42 AUDIO
    TITLE "12:cjc026_09344"
    INDEX 01 00:36:27
  TRACK 43 AUDIO
    TITLE "0:"
    INDEX 01 00:37:51
  TRACK 44 AUDIO
    TITLE "10:cjc026_09345"
    INDEX 01 00:38:14
  TRACK 45 AUDIO
    TITLE "0:"
    INDEX 01 00:39:55
  TRACK 46 AUDIO
    TITLE "11:cjc026_09346"
    INDEX 01 00:40:15
  TRACK 47 AUDIO
    TITLE "0:"
    INDEX 01 00:41:46
  TRACK 48 AUDIO
    TITLE "12:cjc026_09347"
    INDEX 01 00:42:06
  TRACK 49 AUDIO
    TITLE "0:"
    INDEX 01 00:43:47
  TRACK 50 AUDIO
    TITLE "10:cjc026_09348"
    INDEX 01 00:44:10
  TRACK 51 AUDIO
    TITLE "0:"
    INDEX 01 00:45:21
  TRACK 52 AUDIO
    TITLE "11:cjc026_09349"
    INDEX 01 00:45:59
  TRACK 53 AUDIO
    TITLE "0:"
    INDEX 01 00:47:14
  TRACK 54 AUDIO
    TITLE "12:cjc026_09350"
    INDEX 01 00:47:52
  TRACK 55 AUDIO
    TITLE "0:"
    INDEX 01 00:48:63
  TRACK 56 AUDIO
    TITLE "10:cjc026_09351"
    INDEX 01 00:49:26
  TRACK 57 AUDIO
    TITLE "0:"
    INDEX 01 00:50:48
  TRACK 58 AUDIO
    TITLE "11:cjc026_09352"
    INDEX 01 00:51:09
  TRACK 59 AUDIO
    TITLE "0:"
    INDEX 01 00:52:31
  TRACK 60 AUDIO
    TITLE "12:cjc026_09353"
    INDEX 01 00:52:66
  TRACK 61 AUDIO
    TITLE "0:"
    INDEX 01 00:54:13
  TRACK 62 AUDIO
    TITLE "10:cjc026_09354"
    INDEX 01 00:54:48
  TRACK 63 AUDIO
    TITLE "0:"
    INDEX 01 00:55:62
  TRACK 64 AUDIO
    TITLE "11:cjc026_09355"
    INDEX 01 00:56:22
  TRACK 65 AUDIO
    TITLE "0:"
    INDEX 01 00:57:47
  TRACK 66 AUDIO
    TITLE "12:cjc026_09356"
    INDEX 01 00:58:07
  TRACK 67 AUDIO
    TITLE "0:"
    INDEX 01 00:59:24
  TRACK 68 AUDIO
    TITLE "10:cjc026_09357"
    INDEX 01 00:59:59
  TRACK 69 AUDIO
    TITLE "0:"
    INDEX 01 01:01:04
  TRACK 70 AUDIO
    TITLE "11:cjc026_09358"
    INDEX 01 01:01:39
  TRACK 71 AUDIO
    TITLE "0:"
    INDEX 01 01:03:13
  TRACK 72 AUDIO
    TITLE "12:cjc026_09359"
    INDEX 01 01:03:48
  TRACK 73 AUDIO
    TITLE "0:"
    INDEX 01 01:04:68
  TRACK 74 AUDIO
    TITLE "10:cjc026_09360"
    INDEX 01 01:05:30
  TRACK 75 AUDIO
    TITLE "0:"
    INDEX 01 01:06:47
  TRACK 76 AUDIO
    TITLE "11:cjc026_09361"
    INDEX 01 01:07:13
  TRACK 77 AUDIO
    TITLE "0:"
    INDEX 01 01:08:57
  TRACK 78 AUDIO
    TITLE "12:cjc026_09362"
    INDEX 01 01:09:19
  TRACK 79 AUDIO
    TITLE "0:"
    INDEX 01 01:10:39
  TRACK 80 AUDIO
    TITLE "10:cjc026_09363"
    INDEX 01 01:11:02
  TRACK 81 AUDIO
    TITLE "0:"
    INDEX 01 01:12:24
  TRACK 82 AUDIO
    TITLE "11:cjc026_09364"
    INDEX 01 01:12:56
  TRACK 83 AUDIO
    TITLE "0:"
    INDEX 01 01:14:44
  TRACK 84 AUDIO
    TITLE "12:cjc026_09365"
    INDEX 01 01:15:01
  TRACK 85 AUDIO
    TITLE "0:"
    INDEX 01 01:16:23
  TRACK 86 AUDIO
    TITLE "10:cjc026_09366"
    INDEX 01 01:16:61
  TRACK 87 AUDIO
    TITLE "0:"
    INDEX 01 01:18:06
  TRACK 88 AUDIO
    TITLE "11:cjc026_09367"
    INDEX 01 01:18:41
  TRACK 89 AUDIO
    TITLE "0:"
    INDEX 01 01:19:71
  TRACK 90 AUDIO
    TITLE "12:cjc026_09368"
    INDEX 01 01:20:29
  TRACK 91 AUDIO
    TITLE "0:"
    INDEX 01 01:21:51
